<svg class="payment-icon" xmlns="http://www.w3.org/2000/svg" role="img" viewBox="0 0 38 24" width="38" height="24" aria-labelledby="pi-american_express"><title id="pi-american_express">American Express</title><g fill="none"><path fill="#000" d="M35 0H3C1.3.0.0 1.3.0 3V21c0 1.7 1.4 3 3 3H35c1.7.0 3-1.3 3-3V3c0-1.7-1.4-3-3-3z" opacity=".07"/><path fill="#006fcf" d="M35 1c1.1.0 2 .9 2 2V21C37 22.1 36.1 23 35 23H3C1.9 23 1 22.1 1 21V3c0-1.1.9-2 2-2H35"/><path fill="#fff" d="M8.971 10.268 9.745 12.144H8.203L8.971 10.268zM25.046 10.346H22.069v.827h2.929v1.239H22.075V13.334h2.977V14.073l2.077-2.245-2.077-2.34L25.046 10.346zM10.983 8.006h3.995L15.865 9.941 16.687 8h10.37l1.078 1.19L29.25 8h4.763l-3.519 3.852 3.483 3.828H29.143l-1.078-1.19-1.125 1.19H10.03l-.494-1.19H8.406L7.911 15.68H4L7.286 8h3.43L10.983 8.006zm8.663 1.078H17.407l-1.5 3.536-1.625-3.536H12.06v4.81L10 9.084H8.007L5.625 14.596H7.18L7.674 13.406H10.27l.494 1.19h2.72V10.661l1.751 3.941h1.19l1.74-3.929v3.93h1.458L19.647 9.083 19.646 9.084zm9.34 2.768 2.531-2.768H29.695L28.094 10.81 26.546 9.084H20.652v5.518h5.81l1.614-1.738 1.548 1.738h1.875l-2.512-2.75H28.986z"/></g></svg>