<svg xmlns="http://www.w3.org/2000/svg" width="18" height="12" fill="none" viewBox="0 0 36 24"><g clip-path="url(#a)"><path fill="#f0f0f0" d="M0 0h36v23.992H0V-.001z"/><path fill="#464655" d="m5.52 7.282 3.327-4.99.832.554-3.328 4.99-.832-.554zm1.247.832 3.328-4.99.833.554-3.329 4.99-.832-.554zm1.248.832 3.329-4.991.832.554L8.847 9.5l-.832-.554zM23.824 19.482l3.328-4.991.833.555-3.329 4.99-.832-.554zm1.248.832 3.329-4.991.832.554-3.329 4.991-.832-.554zm1.248.831 3.329-4.99.832.554-3.329 4.99-.832-.554z"/><path fill="#464655" d="m25.072 16.71 4.16 2.773-4.16-2.774z"/><path fill="#f0f0f0" d="m25.211 16.501-.277.416 4.16 2.773.278-.416-4.16-2.773z"/><path fill="#ff4b55" d="M13.008 8.668a6 6 0 019.984 6.655l-9.984-6.655z"/><path fill="#0052b4" d="M13.008 8.668a5.998 5.998.0 109.984 6.655A3 3 0 1018 11.996l-4.992-3.328z"/><path fill="#ff4b55" d="M15.504 13.331a3 3 0 100-5.999 3 3 0 000 5.999z"/><path fill="#464655" d="M8.847 21.7 5.52 16.71l.832-.556 3.328 4.991-.832.555zm1.248-.832-3.328-4.99.832-.555 3.329 4.99-.833.555zm1.249-.832-3.329-4.99.832-.555 3.329 4.99-.832.555zM27.152 9.5l-3.328-4.99.832-.555 3.329 4.99-.832.555zm1.249-.832-3.329-4.99.832-.555 3.329 4.99-.832.555zm1.248-.831L26.32 2.846l.832-.555 3.329 4.991-.832.555z"/><path fill="#464655" d="m8.223 18.511 1.248-.831-1.248.831zm16.85-11.229 1.456-.97-1.457.97zm2.704-1.802 1.248-.832-1.248.832z"/><path fill="#f0f0f0" d="m8.362 18.72-.277-.417 1.248-.831.277.415-1.248.832zm16.85-11.23-.278-.416 1.456-.97.277.416-1.456.97zm2.703-1.802-.277-.416 1.248-.832.277.416-1.248.832z"/></g><defs><clipPath id="a"><path fill="#fff" d="M0 0h36v23.995H0z"/></clipPath></defs></svg>