<svg id="Layer_1" xmlns="http://www.w3.org/2000/svg" xmlns:xlink="http://www.w3.org/1999/xlink" viewBox="0 0 10.02 1.47" style="enable-background:new 0 0 10.02 1.47;"><style>.st0{fill:#0CA74F;}
.st1{fill:#FFFFFF;}</style><path class="st0" d="M9.65 1.44H.36c-.18.0-.32-.15-.32-.32V.35C.04.17.19.03.36.03h9.29c.18.0.32.15.32.32v.77C9.97 1.3 9.83 1.44 9.65 1.44z"/><g><path class="st1" d="M.69.56c.08.0.16.0.24.0.02.0.03-.01.03-.03S.95.5.93.5C.89.5.73.5.69.5.67.5.66.51.66.53S.67.56.69.56z"/><path class="st1" d="M.69.66c.08.0.29.0.37.0.02.0.03-.01.03-.03S1.08.6 1.06.6C1.02.6.73.6.69.6.67.6.66.61.66.63S.67.66.69.66z"/><path class="st1" d="M1.42.61c0-.04-.06-.06-.06-.06V.43c0-.05-.04-.09-.09-.09H1.1S.93.2.89.19H.86C.82.2.67.32.66.33.62.33.49.33.49.33.44.33.4.37.4.42c0 0 0 .1.0.13C.39.56.34.57.34.63v.52c0 .07.06.13.13.13.13.0.26.0.39.0.15.0.3.0.44.0.06.0.13-.03.13-.08S1.42.64 1.42.61zM.82.33S.85.31.86.3C.87.29.89.29.9.3s.03.02.05.04H.8L.82.33zm.5.4v.39L1.06.95 1.32.73zm-.54.28.02.01c.05.04.12.04.17.0l.02-.01.24.16H.54l.24-.16zM.85.95C.83.93.61.75.49.66.49.6.49.54.49.48V.43h.76V.5c0 .05.0.15.0.15S.93.94.92.95.87.97.85.95zM.7.95.44 1.13c0-.11.0-.23.0-.34V.73L.7.95z"/></g><g><path class="st1" d="M2.13 1.09H2.05l-.33-.5v.5H1.64V.46h.08l.33.5v-.5h.08v.63z"/><path class="st1" d="M2.72.86h-.4c0 .06.02.1.05.13C2.4 1.02 2.44 1.03 2.48 1.03s.07-.01.1-.03c.03-.02.04-.05.05-.08h.09C2.71.95 2.7.98 2.68 1.01S2.63 1.06 2.6 1.07C2.56 1.09 2.53 1.1 2.49 1.1c-.05.0-.09-.01-.13-.03C2.32 1.05 2.3 1.02 2.28.98 2.25.94 2.24.9 2.24.84s.01-.1.03-.13C2.3.67 2.32.64 2.36.62S2.44.59 2.49.59c.05.0.09.01.12.03C2.65.64 2.67.67 2.69.7c.02.03.03.07.03.11C2.72.83 2.72.85 2.72.86zM2.62.73C2.61.71 2.59.69 2.56.68S2.51.66 2.49.66c-.04.0-.08.01-.11.04C2.34.73 2.33.77 2.32.82h.31C2.64.79 2.63.75 2.62.73z"/><path class="st1" d="M3.5.6l-.14.49H3.27l-.14-.4-.13.4H2.91L2.77.6h.08l.1.41L3.09.6h.09l.14.41.1-.41H3.5z"/><path class="st1" d="M3.86.63C3.9.66 3.92.7 3.92.75H3.85c0-.03-.02-.05-.04-.07C3.79.66 3.76.65 3.73.65s-.05.01-.07.02C3.64.69 3.63.71 3.63.73s.01.03.02.04S3.68.79 3.69.8C3.71.8 3.73.81 3.76.82 3.8.82 3.83.83 3.85.84S3.89.86 3.9.88C3.92.9 3.93.93 3.93.96c0 .04-.02.07-.05.1C3.85 1.08 3.81 1.1 3.76 1.1c-.06.0-.11-.01-.14-.04C3.58 1.03 3.56.99 3.55.94h.08c0 .03.02.05.04.07s.05.03.09.03c.03.0.05-.01.07-.02C3.84 1 3.85.98 3.85.96S3.84.93 3.83.91C3.82.9 3.81.89 3.79.89S3.75.88 3.72.87C3.69.86 3.66.85 3.64.84S3.6.82 3.58.8C3.57.79 3.56.76 3.56.73c0-.04.02-.07.05-.1C3.63.6 3.68.59 3.73.59s.1.02.13.04z"/><path class="st1" d="M4.12.43v.66H4.04V.43H4.12z"/><path class="st1" d="M4.71.86h-.4c0 .06.02.1.05.13s.07.04.11.04.07-.01.1-.03C4.6.98 4.61.95 4.62.92h.09C4.7.95 4.69.98 4.67 1.01 4.65 1.04 4.62 1.06 4.59 1.07 4.55 1.09 4.52 1.1 4.48 1.1c-.05.0-.09-.01-.13-.03C4.31 1.05 4.29 1.02 4.27.98 4.25.94 4.23.9 4.23.84s.01-.1.03-.13c.02-.04.05-.07.09-.09C4.39.6 4.43.59 4.48.59c.05.0.09.01.12.03C4.64.64 4.66.67 4.68.7 4.7.74 4.71.78 4.71.82c0 .01.0.03.0.04zM4.61.73C4.6.71 4.58.69 4.55.68S4.5.66 4.48.66c-.04.0-.08.01-.11.04C4.33.73 4.32.77 4.31.82h.31C4.63.79 4.62.75 4.61.73z"/><path class="st1" d="M5.05 1.02v.07H4.99c-.05.0-.09-.01-.11-.04C4.85 1.03 4.84.99 4.84.93V.67H4.77V.6h.07V.48h.08V.6h.13v.07H4.92v.27c0 .03.01.05.02.06C4.95 1.01 4.97 1.02 5 1.02H5.05z"/><path class="st1" d="M5.4 1.02v.07H5.34c-.05.0-.09-.01-.11-.04C5.2 1.03 5.19.99 5.19.93V.67H5.12V.6h.07V.48h.08V.6H5.4v.07H5.27v.27c0 .03.01.05.02.06C5.3 1.01 5.32 1.02 5.35 1.02H5.4z"/><path class="st1" d="M5.93.86H5.54c0 .06.02.1.05.13S5.66 1.03 5.7 1.03s.07-.01.1-.03c.03-.02.04-.05.05-.08h.09C5.93.95 5.91.98 5.89 1.01 5.87 1.04 5.85 1.06 5.81 1.07 5.78 1.09 5.74 1.1 5.7 1.1c-.05.0-.09-.01-.13-.03C5.54 1.05 5.51 1.02 5.49.98 5.47.94 5.46.9 5.46.84s.01-.1.03-.13c.02-.04.05-.07.09-.09C5.61.6 5.66.59 5.7.59c.05.0.09.01.12.03C5.86.64 5.89.67 5.91.7c.02.03.03.07.03.11C5.94.83 5.94.85 5.93.86zM5.84.73C5.82.71 5.8.69 5.78.68S5.73.66 5.7.66c-.04.0-.08.01-.11.04C5.56.73 5.54.77 5.54.82h.31C5.86.79 5.85.75 5.84.73z"/><path class="st1" d="M6.2.62C6.23.6 6.27.59 6.31.59v.09H6.29c-.05.0-.08.01-.11.04S6.13.78 6.13.83v.26H6.05V.6h.08v.1C6.15.66 6.17.64 6.2.62z"/><path class="st1" d="M6.95 1.01C6.93 1.03 6.91 1.06 6.88 1.07S6.82 1.1 6.77 1.1c-.04.0-.08-.01-.11-.02S6.6 1.04 6.58 1.01C6.56.98 6.55.95 6.55.92h.09c0 .02.01.04.02.05C6.67.99 6.68 1 6.7 1.01c.02.01.04.02.07.02.04.0.06-.01.08-.03.02-.02.03-.04.03-.07S6.87.88 6.86.87C6.85.85 6.83.84 6.81.83S6.76.81 6.73.8c-.04-.01-.07-.03-.1-.04C6.61.75 6.59.73 6.57.71 6.56.68 6.55.65 6.55.62s.01-.06.02-.09.04-.04.07-.06.06-.02.1-.02c.06.0.11.02.15.05s.06.07.06.12H6.87c0-.02-.02-.05-.04-.07C6.81.52 6.78.52 6.74.52c-.03.0-.06.01-.08.03S6.63.58 6.63.61c0 .02.01.04.02.06C6.67.69 6.68.7 6.7.71c.02.01.04.02.08.03s.07.03.1.04C6.9.79 6.92.81 6.94.83c.02.02.03.06.03.1C6.97.96 6.96.98 6.95 1.01z"/><path class="st1" d="M7.08.42C7.09.41 7.11.4 7.12.4s.03.0.04.01.01.02.01.04c0 .01.0.03-.01.04S7.14.5 7.12.5s-.03.0-.04-.01S7.07.47 7.07.45C7.07.44 7.07.43 7.08.42zM7.16.6v.49H7.08V.6H7.16z"/><path class="st1" d="M7.62.63c.03.02.06.06.07.1V.6h.08v.5c0 .04-.01.09-.03.12C7.73 1.25 7.7 1.28 7.66 1.3 7.63 1.32 7.59 1.33 7.54 1.33c-.07.0-.12-.02-.16-.05S7.31 1.21 7.3 1.15h.08c.01.03.03.06.05.08.03.02.06.03.1.03s.08-.01.11-.04C7.68 1.19 7.69 1.15 7.69 1.1V.96C7.68 1 7.66 1.04 7.62 1.06 7.59 1.08 7.55 1.1 7.5 1.1c-.04.0-.08-.01-.12-.03C7.35 1.05 7.32 1.02 7.3.98 7.28.94 7.27.9 7.27.84s.01-.1.03-.13c.02-.04.05-.07.08-.09C7.42.6 7.46.59 7.5.59 7.55.59 7.59.6 7.62.63zM7.4.71C7.37.74 7.36.79 7.36.84s.01.1.04.13.07.05.12.05c.03.0.06-.01.09-.02s.04-.04.06-.06c.01-.03.02-.06.02-.09S7.68.78 7.67.75 7.64.7 7.61.69 7.56.66 7.52.66C7.47.66 7.43.68 7.4.71z"/><path class="st1" d="M8.31.65C8.34.68 8.36.73 8.36.8v.29H8.28V.81c0-.05-.01-.09-.04-.11-.03-.03-.06-.04-.1-.04s-.08.01-.11.04C8 .73 7.99.77 7.99.83v.26H7.91V.6h.08v.12C8 .67 8.02.64 8.06.62s.07-.03.11-.03C8.22.59 8.27.61 8.31.65z"/><path class="st1" d="M8.74.46v.38c0 .06.01.11.04.14C8.81 1 8.84 1.02 8.89 1.02 8.94 1.02 8.98 1 9 .97 9.03.94 9.05.9 9.05.84V.46h.08v.38c0 .09-.02.15-.06.19C9.02 1.07 8.96 1.1 8.89 1.1S8.76 1.07 8.72 1.03 8.66.92 8.66.84V.46H8.74z"/><path class="st1" d="M9.65.62c.03.02.06.05.08.09.02.04.03.08.03.13s-.01.1-.03.13C9.71 1.02 9.68 1.05 9.65 1.07 9.62 1.09 9.58 1.1 9.53 1.1s-.09-.01-.12-.04C9.38 1.04 9.36 1 9.34.96v.36H9.26V.6h.08v.13c.01-.04.04-.07.07-.1C9.45.6 9.49.59 9.53.59 9.58.59 9.62.6 9.65.62zM9.42.69C9.4.7 9.38.72 9.37.75 9.35.78 9.34.81 9.34.84s.01.07.02.09C9.38.97 9.4.99 9.42 1c.03.02.05.02.09.02.05.0.09-.02.12-.05C9.66.94 9.68.9 9.68.84s-.02-.1-.04-.13C9.6.68 9.56.66 9.51.66 9.48.66 9.45.67 9.42.69z"/></g></svg>