<svg id="Layer_1" data-name="Layer 1" xmlns="http://www.w3.org/2000/svg" viewBox="0 0 45.09 31.77"><defs><style>.cls-1{fill:#ee3124;}.cls-2{fill:#fff;}</style></defs><path class="cls-1" d="M46.17 13.78a5.66 5.66.0 00-4-4c-3.52-.95-17.62-.95-17.62-.95s-14.1.0-17.61.95a5.67 5.67.0 00-4 4C2 17.32 2 24.7 2 24.7s0 7.38 1 10.92a5.68 5.68.0 004 4c3.51.94 17.61.94 17.61.94s14.1.0 17.62-.94a5.67 5.67.0 004-4c.94-3.54.94-10.92.94-10.92s0-7.38-.94-10.92" transform="translate(-2.03 -8.82)"/><polygon class="cls-2" points="17.93 22.59 17.93 9.18 29.72 15.88 17.93 22.59"/></svg>