<svg id="Layer_1" data-name="Layer 1" xmlns="http://www.w3.org/2000/svg" viewBox="0 0 35.56 35.56"><defs><style>.cls-1{fill:#007bb6;}.cls-2{fill:#fff;}</style></defs><path class="cls-1" d="M39.72 6.92H9.41A2.6 2.6.0 006.79 9.49V39.91a2.6 2.6.0 002.62 2.57H39.72a2.6 2.6.0 002.63-2.57V9.49A2.6 2.6.0 0039.72 6.92z" transform="translate(-6.79 -6.92)"/><path class="cls-2" d="M12.06 20.25h5.28v17H12.06zm2.64-8.43a3.06 3.06.0 11-3.06 3.06 3.06 3.06.0 013.06-3.06" transform="translate(-6.79 -6.92)"/><path class="cls-2" d="M20.65 20.25H25.7v2.32h.08a5.54 5.54.0 015-2.74c5.34.0 6.32 3.51 6.32 8.08v9.31H31.82V29c0-2 0-4.5-2.74-4.5s-3.16 2.14-3.16 4.36v8.39H20.65z" transform="translate(-6.79 -6.92)"/></svg>